<?xml version="1.0" encoding="utf-8" standalone="no"?>
<!DOCTYPE svg PUBLIC "-//W3C//DTD SVG 1.1//EN"
  "http://www.w3.org/Graphics/SVG/1.1/DTD/svg11.dtd">
<svg xmlns:xlink="http://www.w3.org/1999/xlink" width="460.8pt" height="345.6pt" viewBox="0 0 460.8 345.6" xmlns="http://www.w3.org/2000/svg" version="1.1">
 <metadata>
  <rdf:RDF xmlns:dc="http://purl.org/dc/elements/1.1/" xmlns:cc="http://creativecommons.org/ns#" xmlns:rdf="http://www.w3.org/1999/02/22-rdf-syntax-ns#">
   <cc:Work>
    <dc:type rdf:resource="http://purl.org/dc/dcmitype/StillImage"/>
    <dc:date>2025-10-16T16:21:22.144735</dc:date>
    <dc:format>image/svg+xml</dc:format>
    <dc:creator>
     <cc:Agent>
      <dc:title>Matplotlib v3.10.3, https://matplotlib.org/</dc:title>
     </cc:Agent>
    </dc:creator>
   </cc:Work>
  </rdf:RDF>
 </metadata>
 <defs>
  <style type="text/css">*{stroke-linejoin: round; stroke-linecap: butt}</style>
 </defs>
 <g id="figure_1">
  <g id="patch_1">
   <path d="M 0 345.6 
L 460.8 345.6 
L 460.8 0 
L 0 0 
z
" style="fill: #ffffff"/>
  </g>
  <g id="axes_1">
   <g id="patch_2">
    <path d="M 82.807922 91.578722 
L 441.36 91.578722 
L 441.36 22.051266 
L 82.807922 22.051266 
z
" style="fill: #ffffff"/>
   </g>
   <g id="matplotlib.axis_1">
    <g id="xtick_1">
     <g id="line2d_1">
      <defs>
       <path id="mb0019b724f" d="M 0 0 
L 0 -3.5 
" style="stroke: #000000; stroke-width: 0.8"/>
      </defs>
      <g>
       <use xlink:href="#mb0019b724f" x="99.105744" y="91.578722" style="stroke: #000000; stroke-width: 0.8"/>
      </g>
     </g>
    </g>
    <g id="xtick_2">
     <g id="line2d_2">
      <g>
       <use xlink:href="#mb0019b724f" x="164.297031" y="91.578722" style="stroke: #000000; stroke-width: 0.8"/>
      </g>
     </g>
    </g>
    <g id="xtick_3">
     <g id="line2d_3">
      <g>
       <use xlink:href="#mb0019b724f" x="229.488317" y="91.578722" style="stroke: #000000; stroke-width: 0.8"/>
      </g>
     </g>
    </g>
    <g id="xtick_4">
     <g id="line2d_4">
      <g>
       <use xlink:href="#mb0019b724f" x="294.679604" y="91.578722" style="stroke: #000000; stroke-width: 0.8"/>
      </g>
     </g>
    </g>
    <g id="xtick_5">
     <g id="line2d_5">
      <g>
       <use xlink:href="#mb0019b724f" x="359.870891" y="91.578722" style="stroke: #000000; stroke-width: 0.8"/>
      </g>
     </g>
    </g>
    <g id="xtick_6">
     <g id="line2d_6">
      <g>
       <use xlink:href="#mb0019b724f" x="425.062178" y="91.578722" style="stroke: #000000; stroke-width: 0.8"/>
      </g>
     </g>
    </g>
   </g>
   <g id="matplotlib.axis_2">
    <g id="ytick_1">
     <g id="line2d_7">
      <defs>
       <path id="m9a623cfa7c" d="M 0 0 
L 3.5 0 
" style="stroke: #000000; stroke-width: 0.8"/>
      </defs>
      <g>
       <use xlink:href="#m9a623cfa7c" x="82.807922" y="59.970002" style="stroke: #000000; stroke-width: 0.8"/>
      </g>
     </g>
     <g id="text_1">
      <!-- $\mathdefault{-0.1}$ -->
      <g transform="translate(42.227922 66.215158) scale(0.18 -0.18)">
       <defs>
        <path id="Cmsy10-a1" d="M 653 1472 
Q 600 1472 565 1512 
Q 531 1553 531 1600 
Q 531 1647 565 1687 
Q 600 1728 653 1728 
L 4325 1728 
Q 4375 1728 4408 1687 
Q 4441 1647 4441 1600 
Q 4441 1553 4408 1512 
Q 4375 1472 4325 1472 
L 653 1472 
z
" transform="scale(0.015625)"/>
        <path id="Cmr10-30" d="M 1600 -141 
Q 816 -141 533 504 
Q 250 1150 250 2041 
Q 250 2597 351 3087 
Q 453 3578 754 3920 
Q 1056 4263 1600 4263 
Q 2022 4263 2290 4056 
Q 2559 3850 2700 3523 
Q 2841 3197 2892 2823 
Q 2944 2450 2944 2041 
Q 2944 1491 2842 1011 
Q 2741 531 2444 195 
Q 2147 -141 1600 -141 
z
M 1600 25 
Q 1956 25 2131 390 
Q 2306 756 2347 1200 
Q 2388 1644 2388 2144 
Q 2388 2625 2347 3031 
Q 2306 3438 2132 3767 
Q 1959 4097 1600 4097 
Q 1238 4097 1063 3765 
Q 888 3434 847 3029 
Q 806 2625 806 2144 
Q 806 1788 823 1472 
Q 841 1156 916 820 
Q 991 484 1158 254 
Q 1325 25 1600 25 
z
" transform="scale(0.015625)"/>
        <path id="Cmr10-2e" d="M 538 353 
Q 538 497 644 600 
Q 750 703 891 703 
Q 978 703 1062 656 
Q 1147 609 1194 525 
Q 1241 441 1241 353 
Q 1241 213 1137 106 
Q 1034 0 891 0 
Q 750 0 644 106 
Q 538 213 538 353 
z
" transform="scale(0.015625)"/>
        <path id="Cmr10-31" d="M 594 0 
L 594 225 
Q 1394 225 1394 428 
L 1394 3788 
Q 1063 3628 556 3628 
L 556 3853 
Q 1341 3853 1741 4263 
L 1831 4263 
Q 1853 4263 1873 4245 
Q 1894 4228 1894 4206 
L 1894 428 
Q 1894 225 2694 225 
L 2694 0 
L 594 0 
z
" transform="scale(0.015625)"/>
       </defs>
       <use xlink:href="#Cmsy10-a1" transform="translate(0 0.390625)"/>
       <use xlink:href="#Cmr10-30" transform="translate(77.685547 0.390625)"/>
       <use xlink:href="#Cmr10-2e" transform="translate(127.685547 0.390625)"/>
       <use xlink:href="#Cmr10-31" transform="translate(155.371094 0.390625)"/>
      </g>
     </g>
    </g>
    <g id="ytick_2">
     <g id="line2d_8">
      <g>
       <use xlink:href="#m9a623cfa7c" x="82.807922" y="25.208129" style="stroke: #000000; stroke-width: 0.8"/>
      </g>
     </g>
     <g id="text_2">
      <!-- $\mathdefault{0.0}$ -->
      <g transform="translate(56.267922 31.453285) scale(0.18 -0.18)">
       <use xlink:href="#Cmr10-30" transform="translate(0 0.390625)"/>
       <use xlink:href="#Cmr10-2e" transform="translate(50 0.390625)"/>
       <use xlink:href="#Cmr10-30" transform="translate(77.685547 0.390625)"/>
      </g>
     </g>
    </g>
    <g id="text_3">
     <!-- $\lambda_1$ -->
     <g transform="translate(34.737609 65.814994) rotate(-90) scale(0.18 -0.18)">
      <defs>
       <path id="Cmmi10-b8" d="M 325 109 
Q 325 203 409 288 
L 2209 2053 
L 1575 3834 
Q 1500 4038 1417 4156 
Q 1334 4275 1178 4275 
Q 1106 4275 1106 4359 
Q 1113 4397 1138 4419 
Q 1163 4441 1203 4441 
Q 1875 4441 2016 4044 
L 3316 416 
Q 3400 144 3488 50 
Q 3519 3 3519 -13 
Q 3519 -72 3469 -72 
L 3122 -72 
Q 2963 -25 2869 206 
L 2284 1844 
L 738 25 
Q 622 -84 531 -84 
Q 450 -84 387 -28 
Q 325 28 325 109 
z
" transform="scale(0.015625)"/>
      </defs>
      <use xlink:href="#Cmmi10-b8" transform="translate(0 0.609375)"/>
      <use xlink:href="#Cmr10-31" transform="translate(58.300781 -16.396875) scale(0.7)"/>
     </g>
    </g>
   </g>
   <g id="line2d_9">
    <path d="M 99.432026 25.211613 
L 113.788466 25.316481 
L 118.030141 25.559911 
L 120.640403 25.932372 
L 122.598099 26.450284 
L 123.903231 26.985082 
L 125.208361 27.745321 
L 126.513491 28.821107 
L 127.49234 29.906509 
L 128.471189 31.301104 
L 129.450035 33.081375 
L 130.428884 35.334842 
L 131.407734 38.156053 
L 132.38658 41.637883 
L 133.365429 45.856082 
L 134.670559 52.675519 
L 136.301973 62.865208 
L 138.912236 79.742698 
L 139.891082 84.533623 
L 140.543647 86.775129 
L 141.196215 88.090749 
L 141.522496 88.372931 
L 141.848781 88.397231 
L 142.175061 88.163256 
L 142.501346 87.67481 
L 143.153911 85.969857 
L 143.806476 83.388679 
L 144.785325 78.215931 
L 146.416739 67.660086 
L 148.374434 54.950877 
L 149.679564 47.739396 
L 150.984694 41.879715 
L 151.963547 38.353717 
L 152.942389 35.4938 
L 153.921239 33.207601 
L 154.900088 31.400374 
L 155.878937 29.984004 
L 156.857786 28.88126 
L 158.162916 27.787952 
L 159.468046 27.015131 
L 161.099457 26.362976 
L 163.057155 25.881258 
L 165.341135 25.565934 
L 168.603963 25.352815 
L 174.477051 25.236313 
L 191.117468 25.221346 
L 199.927104 25.361265 
L 203.516213 25.622577 
L 205.800186 25.987457 
L 207.43161 26.429715 
L 209.063021 27.118963 
L 210.368145 27.935191 
L 211.346994 28.762424 
L 212.325843 29.830888 
L 213.304692 31.204196 
L 214.283541 32.958094 
L 215.26239 35.179478 
L 216.241239 37.962678 
L 217.220088 41.40104 
L 218.198938 45.571977 
L 219.504061 52.328733 
L 220.809198 60.320649 
L 224.07202 81.185573 
L 225.050869 85.549785 
L 225.703443 87.428269 
L 226.029718 88.010056 
L 226.356005 88.339855 
L 226.68228 88.41232 
L 227.008567 88.226259 
L 227.334854 87.7847 
L 227.987416 86.167558 
L 228.639978 83.662072 
L 229.618827 78.572842 
L 230.923964 70.265573 
L 233.534224 53.380348 
L 234.839348 46.435877 
L 236.144484 40.852587 
L 237.123333 37.515733 
L 238.102182 34.820903 
L 239.081031 32.673845 
L 240.059881 30.980951 
L 241.03873 29.656794 
L 242.017579 28.627397 
L 243.322703 27.608127 
L 244.627839 26.888423 
L 246.25925 26.281589 
L 248.216948 25.833638 
L 250.827208 25.511805 
L 254.416318 25.320221 
L 261.268249 25.224764 
L 280.192657 25.25036 
L 286.06574 25.424575 
L 289.002287 25.696572 
L 291.28626 26.126064 
L 292.917683 26.646032 
L 294.222807 27.263675 
L 295.527944 28.140224 
L 296.506793 29.027669 
L 297.485642 30.17252 
L 298.464479 31.64168 
L 299.443328 33.514147 
L 300.422177 35.879374 
L 301.401026 38.832474 
L 302.379875 42.464246 
L 303.358724 46.844099 
L 304.66386 53.874334 
L 306.295272 64.242745 
L 308.579257 79.062229 
L 309.558106 84.031399 
L 310.210656 86.429483 
L 310.86323 87.923141 
L 311.189505 88.299097 
L 311.515804 88.418383 
L 311.842079 88.279049 
L 312.168354 87.883372 
L 312.820928 86.352522 
L 313.473478 83.921987 
L 314.452327 78.916336 
L 315.757476 70.661143 
L 318.367723 53.725648 
L 319.672872 46.721052 
L 320.977996 41.076497 
L 321.956845 37.6981 
L 322.935694 34.967125 
L 323.914543 32.789701 
L 324.893392 31.07191 
L 325.872242 29.727708 
L 326.851091 28.682386 
L 328.156215 27.647055 
L 329.461338 26.915846 
L 331.092762 26.299198 
L 333.05046 25.843939 
L 335.660708 25.516822 
L 339.24983 25.322079 
L 346.101749 25.225038 
L 365.026157 25.249702 
L 370.899251 25.421216 
L 374.162074 25.734442 
L 376.119772 26.11191 
L 377.751195 26.623953 
L 379.056319 27.232276 
L 380.361443 28.095747 
L 381.340292 28.970154 
L 382.319141 30.098481 
L 383.29799 31.546942 
L 384.27684 33.393843 
L 385.255689 35.728133 
L 386.234538 38.64481 
L 387.213387 42.235333 
L 388.192236 46.57086 
L 389.49736 53.543925 
L 391.128783 63.865473 
L 393.412756 78.736377 
L 394.391606 83.786215 
L 395.04418 86.256263 
L 395.696729 87.832554 
L 396.023004 88.252357 
L 396.349304 88.416254 
L 396.675579 88.321564 
L 397.001853 87.969838 
L 397.328153 87.366756 
L 397.980702 85.448967 
L 398.633277 82.686499 
L 399.612126 77.317739 
L 401.243549 66.64708 
L 403.201248 54.057259 
L 404.506372 46.995681 
L 405.811495 41.292604 
L 406.790345 37.874219 
L 407.769194 35.108452 
L 408.748043 32.901745 
L 409.726892 31.15992 
L 410.705741 29.796347 
L 411.68459 28.735627 
L 412.989714 27.684768 
L 414.294838 26.942415 
L 415.926261 26.316257 
L 417.88396 25.853919 
L 420.167933 25.551361 
L 423.757054 25.334871 
L 425.062178 25.296285 
L 425.062178 25.296285 
" clip-path="url(#p0a0642fc01)" style="fill: none; stroke: #1f77b4; stroke-width: 1.5; stroke-linecap: square"/>
   </g>
   <g id="line2d_10">
    <path d="M 99.105744 25.211605 
L 113.788466 25.321382 
L 117.703858 25.54398 
L 120.31412 25.899683 
L 122.271817 26.394452 
L 123.903231 27.064111 
L 125.208361 27.857418 
L 126.18721 28.661736 
L 127.166056 29.70107 
L 128.144905 31.037736 
L 129.123754 32.74616 
L 130.1026 34.91214 
L 131.08145 37.629475 
L 132.060299 40.992176 
L 133.039145 45.080294 
L 134.344278 51.72579 
L 135.649408 59.628249 
L 138.912236 80.602108 
L 139.891082 85.135043 
L 140.543647 87.15571 
L 141.196215 88.224365 
L 141.522496 88.377903 
L 141.848781 88.272864 
L 142.175061 87.910959 
L 142.501346 87.29807 
L 143.153911 85.362281 
L 143.806476 82.584972 
L 144.785325 77.201189 
L 146.416739 66.525653 
L 148.374434 53.954123 
L 149.679564 46.910897 
L 150.984694 41.226119 
L 151.963547 37.820098 
L 152.942389 35.06508 
L 153.921239 32.867381 
L 154.900088 31.132939 
L 155.878937 29.775311 
L 156.857786 28.719313 
L 158.162916 27.673212 
L 159.468046 26.934272 
L 161.099457 26.311032 
L 163.057155 25.850863 
L 165.341135 25.549732 
L 168.930244 25.334268 
L 175.12962 25.230559 
L 193.075166 25.231872 
L 200.253385 25.383367 
L 203.516213 25.641235 
L 205.800186 26.02242 
L 207.43161 26.484306 
L 208.736733 27.033526 
L 210.04187 27.814047 
L 211.020719 28.605571 
L 211.999568 29.628636 
L 212.978417 30.944814 
L 213.957266 32.627783 
L 214.936103 34.762678 
L 215.914952 37.44301 
L 216.893801 40.763096 
L 217.87265 44.804432 
L 219.177787 51.386702 
L 220.482911 59.237698 
L 224.07202 81.984852 
L 224.724594 84.902594 
L 225.377156 87.00628 
L 226.029718 88.16737 
L 226.356005 88.368895 
L 226.68228 88.311983 
L 227.008567 87.997577 
L 227.334854 87.430764 
L 227.987416 85.580175 
L 228.639978 82.874908 
L 229.618827 77.568108 
L 231.250238 66.935431 
L 233.207937 54.313159 
L 234.513073 47.208809 
L 235.818197 41.46085 
L 236.797046 38.011595 
L 237.775895 35.218824 
L 238.754744 32.989327 
L 239.733593 31.228758 
L 240.712442 29.850061 
L 241.691292 28.777306 
L 242.996428 27.714287 
L 244.301552 26.963216 
L 245.932963 26.329623 
L 247.890661 25.861741 
L 250.174647 25.555529 
L 253.763756 25.336416 
L 259.963125 25.230942 
L 277.908672 25.231484 
L 285.08689 25.380513 
L 288.349725 25.634206 
L 290.633698 26.009249 
L 292.265109 26.463739 
L 293.570245 27.004245 
L 294.875369 27.772502 
L 296.180506 28.859463 
L 297.159355 29.95592 
L 298.138204 31.364391 
L 299.117053 33.161835 
L 300.095902 35.436139 
L 301.074751 38.281969 
L 302.053588 41.791784 
L 303.032437 46.040223 
L 304.337573 52.899089 
L 305.968984 63.121646 
L 308.579257 79.946294 
L 309.558106 84.66958 
L 310.210656 86.85297 
L 310.86323 88.103419 
L 311.189505 88.351521 
L 311.515804 88.341477 
L 311.842079 88.073453 
L 312.168354 87.551824 
L 312.820928 85.785066 
L 313.473478 83.151262 
L 314.452327 77.921716 
L 316.08375 67.334228 
L 318.041449 54.664951 
L 319.346572 47.50163 
L 320.651721 41.691916 
L 321.630545 38.200385 
L 322.609395 35.370538 
L 323.588244 33.109742 
L 324.567093 31.323423 
L 325.545942 29.923939 
L 326.524791 28.834639 
L 327.82994 27.754901 
L 329.135064 26.991838 
L 330.766462 26.348015 
L 332.724161 25.872503 
L 335.008158 25.561265 
L 338.270981 25.350921 
L 344.144075 25.235943 
L 360.784486 25.221504 
L 369.594128 25.36313 
L 373.183224 25.627606 
L 375.467197 25.996881 
L 377.098621 26.444432 
L 378.730044 27.141858 
L 380.035168 27.967634 
L 381.014017 28.80441 
L 381.992867 29.88499 
L 382.971716 31.273521 
L 383.950565 33.046273 
L 384.929414 35.290582 
L 385.908263 38.100914 
L 386.887112 41.570246 
L 387.865936 45.77463 
L 389.171085 52.575587 
L 390.802484 62.747003 
L 393.412756 79.631396 
L 394.391606 84.441172 
L 395.04418 86.69966 
L 395.696729 88.034634 
L 396.023004 88.327051 
L 396.349304 88.361715 
L 396.675579 88.138077 
L 397.001853 87.659779 
L 397.654428 85.973864 
L 398.307002 83.409274 
L 399.285851 78.255505 
L 400.91725 67.714673 
L 402.874948 55.002775 
L 404.180097 47.783426 
L 405.485221 41.91491 
L 406.46407 38.38262 
L 407.442919 35.517106 
L 408.421768 33.226148 
L 409.400617 31.414982 
L 410.379466 29.99542 
L 411.358315 28.890128 
L 412.663439 27.794245 
L 413.968563 27.019572 
L 415.599987 26.365826 
L 417.557685 25.882927 
L 419.841658 25.566825 
L 423.10448 25.353176 
L 425.062178 25.292275 
L 425.062178 25.292275 
" clip-path="url(#p0a0642fc01)" style="fill: none; stroke-dasharray: 5.55,2.4; stroke-dashoffset: 0; stroke: #000000; stroke-width: 1.5"/>
   </g>
   <g id="patch_3">
    <path d="M 82.807922 91.578722 
L 82.807922 22.051266 
" style="fill: none; stroke: #000000; stroke-width: 0.8; stroke-linejoin: miter; stroke-linecap: square"/>
   </g>
   <g id="patch_4">
    <path d="M 82.807922 91.578722 
L 441.36 91.578722 
" style="fill: none; stroke: #000000; stroke-width: 0.8; stroke-linejoin: miter; stroke-linecap: square"/>
   </g>
   <g id="legend_1">
    <g id="patch_5">
     <path d="M 94.007922 83.578722 
L 403.462922 83.578722 
Q 406.662922 83.578722 406.662922 80.378722 
L 406.662922 59.243722 
Q 406.662922 56.043722 403.462922 56.043722 
L 94.007922 56.043722 
Q 90.807922 56.043722 90.807922 59.243722 
L 90.807922 80.378722 
Q 90.807922 83.578722 94.007922 83.578722 
z
" style="fill: #ffffff; opacity: 0.8; stroke: #cccccc; stroke-linejoin: miter"/>
    </g>
    <g id="line2d_11">
     <path d="M 97.207922 68.296222 
L 113.207922 68.296222 
L 129.207922 68.296222 
" style="fill: none; stroke: #1f77b4; stroke-width: 1.5; stroke-linecap: square"/>
    </g>
    <g id="text_4">
     <!-- PyTorch Solver -->
     <g transform="translate(142.007922 73.896222) scale(0.16 -0.16)">
      <defs>
       <path id="Cmr10-50" d="M 213 0 
L 213 225 
Q 872 225 872 428 
L 872 3944 
Q 872 4147 213 4147 
L 213 4372 
L 2491 4372 
Q 2841 4372 3191 4228 
Q 3541 4084 3767 3809 
Q 3994 3534 3994 3169 
Q 3994 2813 3766 2544 
Q 3538 2275 3191 2136 
Q 2844 1997 2491 1997 
L 1466 1997 
L 1466 428 
Q 1466 225 2125 225 
L 2125 0 
L 213 0 
z
M 1447 2188 
L 2316 2188 
Q 2669 2188 2887 2289 
Q 3106 2391 3207 2605 
Q 3309 2819 3309 3169 
Q 3309 3691 3079 3919 
Q 2850 4147 2316 4147 
L 1772 4147 
Q 1656 4147 1592 4137 
Q 1528 4128 1487 4083 
Q 1447 4038 1447 3944 
L 1447 2188 
z
" transform="scale(0.015625)"/>
       <path id="Cmr10-79" d="M 441 -1050 
Q 563 -1147 709 -1147 
Q 1113 -1147 1369 -538 
L 1588 0 
L 628 2350 
Q 569 2469 447 2501 
Q 325 2534 122 2534 
L 122 2759 
L 1466 2759 
L 1466 2534 
Q 1113 2534 1113 2381 
Q 1113 2356 1119 2344 
L 1831 594 
L 2472 2169 
Q 2491 2219 2491 2278 
Q 2491 2356 2448 2414 
Q 2406 2472 2339 2503 
Q 2272 2534 2188 2534 
L 2188 2759 
L 3250 2759 
L 3250 2534 
Q 3053 2534 2904 2443 
Q 2756 2353 2675 2175 
L 1569 -538 
Q 1481 -744 1364 -917 
Q 1247 -1091 1078 -1202 
Q 909 -1313 709 -1313 
Q 475 -1313 298 -1158 
Q 122 -1003 122 -775 
Q 122 -656 203 -575 
Q 284 -494 403 -494 
Q 484 -494 548 -530 
Q 613 -566 648 -628 
Q 684 -691 684 -775 
Q 684 -878 615 -959 
Q 547 -1041 441 -1050 
z
" transform="scale(0.015625)"/>
       <path id="Cmr10-54" d="M 1081 0 
L 1081 225 
Q 1403 225 1706 261 
Q 2009 297 2009 428 
L 2009 3944 
Q 2009 4081 1932 4114 
Q 1856 4147 1684 4147 
L 1416 4147 
Q 888 4147 666 3916 
Q 550 3800 500 3545 
Q 450 3291 416 2906 
L 231 2906 
L 353 4372 
L 4263 4372 
L 4384 2906 
L 4197 2906 
Q 4159 3319 4114 3561 
Q 4069 3803 3950 3916 
Q 3725 4147 3200 4147 
L 2931 4147 
Q 2816 4147 2752 4137 
Q 2688 4128 2647 4083 
Q 2606 4038 2606 3944 
L 2606 428 
Q 2606 297 2909 261 
Q 3213 225 3531 225 
L 3531 0 
L 1081 0 
z
" transform="scale(0.015625)"/>
       <path id="Cmr10-6f" d="M 1600 -72 
Q 1216 -72 887 123 
Q 559 319 368 647 
Q 178 975 178 1363 
Q 178 1656 283 1928 
Q 388 2200 583 2414 
Q 778 2628 1037 2748 
Q 1297 2869 1600 2869 
Q 1994 2869 2317 2661 
Q 2641 2453 2828 2104 
Q 3016 1756 3016 1363 
Q 3016 978 2825 648 
Q 2634 319 2307 123 
Q 1981 -72 1600 -72 
z
M 1600 116 
Q 2113 116 2284 487 
Q 2456 859 2456 1434 
Q 2456 1756 2422 1967 
Q 2388 2178 2272 2350 
Q 2200 2456 2089 2536 
Q 1978 2616 1854 2658 
Q 1731 2700 1600 2700 
Q 1400 2700 1220 2609 
Q 1041 2519 922 2350 
Q 803 2169 770 1951 
Q 738 1734 738 1434 
Q 738 1075 800 789 
Q 863 503 1052 309 
Q 1241 116 1600 116 
z
" transform="scale(0.015625)"/>
       <path id="Cmr10-72" d="M 166 0 
L 166 225 
Q 384 225 525 259 
Q 666 294 666 428 
L 666 2175 
Q 666 2347 614 2423 
Q 563 2500 466 2517 
Q 369 2534 166 2534 
L 166 2759 
L 1081 2828 
L 1081 2203 
Q 1184 2481 1375 2654 
Q 1566 2828 1838 2828 
Q 2028 2828 2178 2715 
Q 2328 2603 2328 2419 
Q 2328 2303 2245 2217 
Q 2163 2131 2041 2131 
Q 1922 2131 1837 2215 
Q 1753 2300 1753 2419 
Q 1753 2591 1875 2663 
L 1838 2663 
Q 1578 2663 1414 2475 
Q 1250 2288 1181 2009 
Q 1113 1731 1113 1478 
L 1113 428 
Q 1113 225 1734 225 
L 1734 0 
L 166 0 
z
" transform="scale(0.015625)"/>
       <path id="Cmr10-63" d="M 1594 -72 
Q 1206 -72 890 129 
Q 575 331 394 667 
Q 213 1003 213 1381 
Q 213 1759 392 2106 
Q 572 2453 889 2661 
Q 1206 2869 1594 2869 
Q 1969 2869 2276 2722 
Q 2584 2575 2584 2241 
Q 2584 2116 2495 2023 
Q 2406 1931 2278 1931 
Q 2150 1931 2061 2023 
Q 1972 2116 1972 2241 
Q 1972 2353 2044 2436 
Q 2116 2519 2222 2541 
Q 2000 2681 1600 2681 
Q 1294 2681 1106 2478 
Q 919 2275 844 1975 
Q 769 1675 769 1381 
Q 769 1072 861 783 
Q 953 494 1158 305 
Q 1363 116 1672 116 
Q 1975 116 2187 302 
Q 2400 488 2478 788 
Q 2478 825 2528 825 
L 2606 825 
Q 2625 825 2640 808 
Q 2656 791 2656 769 
L 2656 750 
Q 2559 372 2271 150 
Q 1984 -72 1594 -72 
z
" transform="scale(0.015625)"/>
       <path id="Cmr10-68" d="M 191 0 
L 191 225 
Q 409 225 550 259 
Q 691 294 691 428 
L 691 3788 
Q 691 3959 639 4036 
Q 588 4113 491 4130 
Q 394 4147 191 4147 
L 191 4372 
L 1141 4441 
L 1141 2241 
Q 1275 2506 1515 2667 
Q 1756 2828 2047 2828 
Q 2491 2828 2714 2615 
Q 2938 2403 2938 1966 
L 2938 428 
Q 2938 294 3078 259 
Q 3219 225 3438 225 
L 3438 0 
L 1972 0 
L 1972 225 
Q 2191 225 2331 259 
Q 2472 294 2472 428 
L 2472 1947 
Q 2472 2259 2381 2461 
Q 2291 2663 2009 2663 
Q 1638 2663 1398 2366 
Q 1159 2069 1159 1691 
L 1159 428 
Q 1159 294 1300 259 
Q 1441 225 1656 225 
L 1656 0 
L 191 0 
z
" transform="scale(0.015625)"/>
       <path id="Cmr10-20" transform="scale(0.015625)"/>
       <path id="Cmr10-53" d="M 359 -91 
L 359 1403 
Q 359 1453 416 1453 
L 494 1453 
Q 513 1453 528 1437 
Q 544 1422 544 1403 
Q 544 775 933 429 
Q 1322 84 1953 84 
Q 2175 84 2362 212 
Q 2550 341 2654 548 
Q 2759 756 2759 978 
Q 2759 1172 2681 1355 
Q 2603 1538 2456 1672 
Q 2309 1806 2125 1850 
L 1294 2053 
Q 881 2163 620 2502 
Q 359 2841 359 3263 
Q 359 3594 528 3884 
Q 697 4175 983 4344 
Q 1269 4513 1600 4513 
Q 2241 4513 2619 4078 
L 2881 4494 
Q 2900 4513 2925 4513 
L 2969 4513 
Q 2988 4513 3005 4498 
Q 3022 4484 3022 4459 
L 3022 2975 
Q 3022 2919 2969 2919 
L 2894 2919 
Q 2834 2919 2834 2975 
Q 2834 3138 2779 3331 
Q 2725 3525 2628 3703 
Q 2531 3881 2419 3994 
Q 2109 4306 1600 4306 
Q 1381 4306 1197 4195 
Q 1013 4084 903 3893 
Q 794 3703 794 3494 
Q 794 3219 964 2995 
Q 1134 2772 1409 2700 
L 2241 2497 
Q 2447 2447 2630 2317 
Q 2813 2188 2934 2016 
Q 3056 1844 3125 1633 
Q 3194 1422 3194 1197 
Q 3194 850 3034 542 
Q 2875 234 2586 46 
Q 2297 -141 1953 -141 
Q 1741 -141 1519 -94 
Q 1297 -47 1109 50 
Q 922 147 769 300 
L 500 -122 
Q 481 -141 453 -141 
L 416 -141 
Q 359 -141 359 -91 
z
" transform="scale(0.015625)"/>
       <path id="Cmr10-6c" d="M 197 0 
L 197 225 
Q 416 225 556 259 
Q 697 294 697 428 
L 697 3788 
Q 697 3959 645 4036 
Q 594 4113 497 4130 
Q 400 4147 197 4147 
L 197 4372 
L 1147 4441 
L 1147 428 
Q 1147 294 1287 259 
Q 1428 225 1644 225 
L 1644 0 
L 197 0 
z
" transform="scale(0.015625)"/>
       <path id="Cmr10-76" d="M 1563 0 
L 628 2350 
Q 569 2469 445 2501 
Q 322 2534 122 2534 
L 122 2759 
L 1466 2759 
L 1466 2534 
Q 1106 2534 1106 2381 
Q 1106 2356 1113 2344 
L 1831 538 
L 2478 2169 
Q 2497 2219 2497 2272 
Q 2497 2394 2405 2464 
Q 2313 2534 2188 2534 
L 2188 2759 
L 3250 2759 
L 3250 2534 
Q 3053 2534 2904 2443 
Q 2756 2353 2675 2175 
L 1813 0 
Q 1788 -72 1709 -72 
L 1663 -72 
Q 1584 -72 1563 0 
z
" transform="scale(0.015625)"/>
       <path id="Cmr10-65" d="M 1594 -72 
Q 1203 -72 876 133 
Q 550 338 364 680 
Q 178 1022 178 1403 
Q 178 1778 348 2115 
Q 519 2453 823 2661 
Q 1128 2869 1503 2869 
Q 1797 2869 2014 2770 
Q 2231 2672 2372 2497 
Q 2513 2322 2584 2084 
Q 2656 1847 2656 1563 
Q 2656 1478 2591 1478 
L 738 1478 
L 738 1409 
Q 738 878 952 497 
Q 1166 116 1650 116 
Q 1847 116 2014 203 
Q 2181 291 2304 447 
Q 2428 603 2472 781 
Q 2478 803 2495 820 
Q 2513 838 2534 838 
L 2591 838 
Q 2656 838 2656 756 
Q 2566 394 2266 161 
Q 1966 -72 1594 -72 
z
M 744 1638 
L 2203 1638 
Q 2203 1878 2136 2125 
Q 2069 2372 1912 2536 
Q 1756 2700 1503 2700 
Q 1141 2700 942 2361 
Q 744 2022 744 1638 
z
" transform="scale(0.015625)"/>
      </defs>
      <use xlink:href="#Cmr10-50"/>
      <use xlink:href="#Cmr10-79" transform="translate(68.017578 0)"/>
      <use xlink:href="#Cmr10-54" transform="translate(120.703125 0)"/>
      <use xlink:href="#Cmr10-6f" transform="translate(192.919922 0)"/>
      <use xlink:href="#Cmr10-72" transform="translate(242.919922 0)"/>
      <use xlink:href="#Cmr10-63" transform="translate(282.03125 0)"/>
      <use xlink:href="#Cmr10-68" transform="translate(326.416016 0)"/>
      <use xlink:href="#Cmr10-20" transform="translate(381.933594 0)"/>
      <use xlink:href="#Cmr10-53" transform="translate(415.234375 0)"/>
      <use xlink:href="#Cmr10-6f" transform="translate(470.751953 0)"/>
      <use xlink:href="#Cmr10-6c" transform="translate(520.751953 0)"/>
      <use xlink:href="#Cmr10-76" transform="translate(548.4375 0)"/>
      <use xlink:href="#Cmr10-65" transform="translate(601.123047 0)"/>
      <use xlink:href="#Cmr10-72" transform="translate(645.507812 0)"/>
     </g>
    </g>
    <g id="line2d_12">
     <path d="M 283.547922 68.296222 
L 299.547922 68.296222 
L 315.547922 68.296222 
" style="fill: none; stroke-dasharray: 5.55,2.4; stroke-dashoffset: 0; stroke: #000000; stroke-width: 1.5"/>
    </g>
    <g id="text_5">
     <!-- Analytical -->
     <g transform="translate(328.347922 73.896222) scale(0.16 -0.16)">
      <defs>
       <path id="Cmr10-41" d="M 206 0 
L 206 225 
Q 778 225 909 603 
L 2253 4513 
Q 2272 4581 2356 4581 
L 2438 4581 
Q 2522 4581 2541 4513 
L 3944 428 
Q 4003 294 4170 259 
Q 4338 225 4588 225 
L 4588 0 
L 2803 0 
L 2803 225 
Q 3334 225 3334 397 
L 3334 428 
L 2988 1428 
L 1434 1428 
L 1147 603 
Q 1141 581 1141 538 
Q 1141 378 1292 301 
Q 1444 225 1619 225 
L 1619 0 
L 206 0 
z
M 1509 1650 
L 2913 1650 
L 2209 3694 
L 1509 1650 
z
" transform="scale(0.015625)"/>
       <path id="Cmr10-6e" d="M 191 0 
L 191 225 
Q 409 225 550 259 
Q 691 294 691 428 
L 691 2175 
Q 691 2347 639 2423 
Q 588 2500 491 2517 
Q 394 2534 191 2534 
L 191 2759 
L 1119 2828 
L 1119 2203 
Q 1247 2478 1498 2653 
Q 1750 2828 2047 2828 
Q 2491 2828 2714 2615 
Q 2938 2403 2938 1966 
L 2938 428 
Q 2938 294 3078 259 
Q 3219 225 3438 225 
L 3438 0 
L 1972 0 
L 1972 225 
Q 2191 225 2331 259 
Q 2472 294 2472 428 
L 2472 1947 
Q 2472 2259 2381 2461 
Q 2291 2663 2009 2663 
Q 1638 2663 1398 2366 
Q 1159 2069 1159 1691 
L 1159 428 
Q 1159 294 1300 259 
Q 1441 225 1656 225 
L 1656 0 
L 191 0 
z
" transform="scale(0.015625)"/>
       <path id="Cmr10-61" d="M 256 628 
Q 256 1009 556 1248 
Q 856 1488 1276 1586 
Q 1697 1684 2075 1684 
L 2075 1947 
Q 2075 2131 1994 2304 
Q 1913 2478 1759 2589 
Q 1606 2700 1422 2700 
Q 997 2700 775 2509 
Q 897 2509 976 2417 
Q 1056 2325 1056 2203 
Q 1056 2075 965 1984 
Q 875 1894 750 1894 
Q 622 1894 531 1984 
Q 441 2075 441 2203 
Q 441 2541 747 2705 
Q 1053 2869 1422 2869 
Q 1681 2869 1943 2758 
Q 2206 2647 2373 2440 
Q 2541 2234 2541 1959 
L 2541 519 
Q 2541 394 2594 289 
Q 2647 184 2759 184 
Q 2866 184 2917 290 
Q 2969 397 2969 519 
L 2969 928 
L 3156 928 
L 3156 519 
Q 3156 375 3081 245 
Q 3006 116 2879 39 
Q 2753 -38 2606 -38 
Q 2419 -38 2283 107 
Q 2147 253 2131 453 
Q 2013 213 1781 70 
Q 1550 -72 1288 -72 
Q 1044 -72 808 0 
Q 572 72 414 226 
Q 256 381 256 628 
z
M 775 628 
Q 775 403 940 250 
Q 1106 97 1331 97 
Q 1538 97 1706 200 
Q 1875 303 1975 481 
Q 2075 659 2075 856 
L 2075 1522 
Q 1784 1522 1479 1426 
Q 1175 1331 975 1128 
Q 775 925 775 628 
z
" transform="scale(0.015625)"/>
       <path id="Cmr10-74" d="M 653 769 
L 653 2534 
L 122 2534 
L 122 2700 
Q 541 2700 737 3090 
Q 934 3481 934 3938 
L 1119 3938 
L 1119 2759 
L 2022 2759 
L 2022 2534 
L 1119 2534 
L 1119 781 
Q 1119 516 1208 316 
Q 1297 116 1528 116 
Q 1747 116 1844 327 
Q 1941 538 1941 781 
L 1941 1159 
L 2125 1159 
L 2125 769 
Q 2125 569 2051 373 
Q 1978 178 1834 53 
Q 1691 -72 1484 -72 
Q 1100 -72 876 158 
Q 653 388 653 769 
z
" transform="scale(0.015625)"/>
       <path id="Cmr10-69" d="M 197 0 
L 197 225 
Q 416 225 556 259 
Q 697 294 697 428 
L 697 2175 
Q 697 2422 601 2478 
Q 506 2534 225 2534 
L 225 2759 
L 1147 2828 
L 1147 428 
Q 1147 294 1269 259 
Q 1391 225 1594 225 
L 1594 0 
L 197 0 
z
M 469 3928 
Q 469 4069 575 4175 
Q 681 4281 819 4281 
Q 909 4281 993 4234 
Q 1078 4188 1125 4103 
Q 1172 4019 1172 3928 
Q 1172 3791 1065 3684 
Q 959 3578 819 3578 
Q 681 3578 575 3684 
Q 469 3791 469 3928 
z
" transform="scale(0.015625)"/>
      </defs>
      <use xlink:href="#Cmr10-41"/>
      <use xlink:href="#Cmr10-6e" transform="translate(75 0)"/>
      <use xlink:href="#Cmr10-61" transform="translate(130.517578 0)"/>
      <use xlink:href="#Cmr10-6c" transform="translate(180.517578 0)"/>
      <use xlink:href="#Cmr10-79" transform="translate(208.203125 0)"/>
      <use xlink:href="#Cmr10-74" transform="translate(260.888672 0)"/>
      <use xlink:href="#Cmr10-69" transform="translate(299.707031 0)"/>
      <use xlink:href="#Cmr10-63" transform="translate(327.392578 0)"/>
      <use xlink:href="#Cmr10-61" transform="translate(371.777344 0)"/>
      <use xlink:href="#Cmr10-6c" transform="translate(421.777344 0)"/>
     </g>
    </g>
   </g>
  </g>
  <g id="axes_2">
   <g id="patch_6">
    <path d="M 82.807922 186.714361 
L 441.36 186.714361 
L 441.36 117.186905 
L 82.807922 117.186905 
z
" style="fill: #ffffff"/>
   </g>
   <g id="matplotlib.axis_3">
    <g id="xtick_7">
     <g id="line2d_13">
      <g>
       <use xlink:href="#mb0019b724f" x="99.105744" y="186.714361" style="stroke: #000000; stroke-width: 0.8"/>
      </g>
     </g>
    </g>
    <g id="xtick_8">
     <g id="line2d_14">
      <g>
       <use xlink:href="#mb0019b724f" x="164.297031" y="186.714361" style="stroke: #000000; stroke-width: 0.8"/>
      </g>
     </g>
    </g>
    <g id="xtick_9">
     <g id="line2d_15">
      <g>
       <use xlink:href="#mb0019b724f" x="229.488317" y="186.714361" style="stroke: #000000; stroke-width: 0.8"/>
      </g>
     </g>
    </g>
    <g id="xtick_10">
     <g id="line2d_16">
      <g>
       <use xlink:href="#mb0019b724f" x="294.679604" y="186.714361" style="stroke: #000000; stroke-width: 0.8"/>
      </g>
     </g>
    </g>
    <g id="xtick_11">
     <g id="line2d_17">
      <g>
       <use xlink:href="#mb0019b724f" x="359.870891" y="186.714361" style="stroke: #000000; stroke-width: 0.8"/>
      </g>
     </g>
    </g>
    <g id="xtick_12">
     <g id="line2d_18">
      <g>
       <use xlink:href="#mb0019b724f" x="425.062178" y="186.714361" style="stroke: #000000; stroke-width: 0.8"/>
      </g>
     </g>
    </g>
   </g>
   <g id="matplotlib.axis_4">
    <g id="ytick_3">
     <g id="line2d_19">
      <g>
       <use xlink:href="#m9a623cfa7c" x="82.807922" y="183.519226" style="stroke: #000000; stroke-width: 0.8"/>
      </g>
     </g>
     <g id="text_6">
      <!-- $\mathdefault{-1.0}$ -->
      <g transform="translate(42.227922 189.764383) scale(0.18 -0.18)">
       <use xlink:href="#Cmsy10-a1" transform="translate(0 0.390625)"/>
       <use xlink:href="#Cmr10-31" transform="translate(77.685547 0.390625)"/>
       <use xlink:href="#Cmr10-2e" transform="translate(127.685547 0.390625)"/>
       <use xlink:href="#Cmr10-30" transform="translate(155.371094 0.390625)"/>
      </g>
     </g>
    </g>
    <g id="ytick_4">
     <g id="line2d_20">
      <g>
       <use xlink:href="#m9a623cfa7c" x="82.807922" y="148.735601" style="stroke: #000000; stroke-width: 0.8"/>
      </g>
     </g>
     <g id="text_7">
      <!-- $\mathdefault{-0.9}$ -->
      <g transform="translate(42.227922 154.980757) scale(0.18 -0.18)">
       <defs>
        <path id="Cmr10-39" d="M 722 269 
Q 897 63 1331 63 
Q 1575 63 1786 228 
Q 1997 394 2113 634 
Q 2247 906 2284 1214 
Q 2322 1522 2322 1978 
Q 2213 1719 2008 1553 
Q 1803 1388 1538 1388 
Q 1166 1388 873 1589 
Q 581 1791 425 2120 
Q 269 2450 269 2822 
Q 269 3206 444 3539 
Q 619 3872 928 4067 
Q 1238 4263 1631 4263 
Q 2019 4263 2280 4052 
Q 2541 3841 2678 3508 
Q 2816 3175 2870 2803 
Q 2925 2431 2925 2069 
Q 2925 1575 2744 1061 
Q 2563 547 2202 203 
Q 1841 -141 1331 -141 
Q 953 -141 690 37 
Q 428 216 428 575 
Q 428 706 517 795 
Q 606 884 738 884 
Q 866 884 955 795 
Q 1044 706 1044 575 
Q 1044 450 953 359 
Q 863 269 738 269 
L 722 269 
z
M 1563 1556 
Q 1825 1556 1992 1732 
Q 2159 1909 2234 2171 
Q 2309 2434 2309 2694 
L 2309 2816 
L 2309 2841 
Q 2309 3322 2168 3700 
Q 2028 4078 1631 4078 
Q 1378 4078 1220 3967 
Q 1063 3856 988 3672 
Q 913 3488 892 3278 
Q 872 3069 872 2822 
Q 872 2459 906 2203 
Q 941 1947 1094 1751 
Q 1247 1556 1563 1556 
z
" transform="scale(0.015625)"/>
       </defs>
       <use xlink:href="#Cmsy10-a1" transform="translate(0 0.390625)"/>
       <use xlink:href="#Cmr10-30" transform="translate(77.685547 0.390625)"/>
       <use xlink:href="#Cmr10-2e" transform="translate(127.685547 0.390625)"/>
       <use xlink:href="#Cmr10-39" transform="translate(155.371094 0.390625)"/>
      </g>
     </g>
    </g>
    <g id="text_8">
     <!-- $\lambda_2$ -->
     <g transform="translate(34.737609 160.950633) rotate(-90) scale(0.18 -0.18)">
      <defs>
       <path id="Cmr10-32" d="M 319 0 
L 319 172 
Q 319 188 331 206 
L 1325 1306 
Q 1550 1550 1690 1715 
Q 1831 1881 1968 2097 
Q 2106 2313 2186 2536 
Q 2266 2759 2266 3009 
Q 2266 3272 2169 3511 
Q 2072 3750 1880 3894 
Q 1688 4038 1416 4038 
Q 1138 4038 916 3870 
Q 694 3703 603 3438 
Q 628 3444 672 3444 
Q 816 3444 917 3347 
Q 1019 3250 1019 3097 
Q 1019 2950 917 2848 
Q 816 2747 672 2747 
Q 522 2747 420 2851 
Q 319 2956 319 3097 
Q 319 3338 409 3548 
Q 500 3759 670 3923 
Q 841 4088 1055 4175 
Q 1269 4263 1509 4263 
Q 1875 4263 2190 4108 
Q 2506 3953 2690 3670 
Q 2875 3388 2875 3009 
Q 2875 2731 2753 2481 
Q 2631 2231 2440 2026 
Q 2250 1822 1953 1562 
Q 1656 1303 1563 1216 
L 838 519 
L 1453 519 
Q 1906 519 2211 526 
Q 2516 534 2534 550 
Q 2609 631 2688 1141 
L 2875 1141 
L 2694 0 
L 319 0 
z
" transform="scale(0.015625)"/>
      </defs>
      <use xlink:href="#Cmmi10-b8" transform="translate(0 0.609375)"/>
      <use xlink:href="#Cmr10-32" transform="translate(58.300781 -16.396875) scale(0.7)"/>
     </g>
    </g>
   </g>
   <g id="line2d_21">
    <path d="M 99.432026 183.554002 
L 113.788466 183.449134 
L 118.030141 183.205704 
L 120.640403 182.833243 
L 122.598099 182.315331 
L 123.903231 181.780533 
L 125.208361 181.020294 
L 126.513491 179.944508 
L 127.49234 178.859107 
L 128.471189 177.464512 
L 129.450035 175.684241 
L 130.428884 173.430775 
L 131.407734 170.609564 
L 132.38658 167.127734 
L 133.365429 162.909537 
L 134.670559 156.0901 
L 136.301973 145.900413 
L 138.912236 129.022926 
L 139.891082 124.232001 
L 140.543647 121.990496 
L 141.196215 120.674876 
L 141.522496 120.392694 
L 141.848781 120.368394 
L 142.175061 120.602369 
L 142.501346 121.090815 
L 143.153911 122.795768 
L 143.806476 125.376945 
L 144.785325 130.549692 
L 146.416739 141.105536 
L 148.374434 153.814743 
L 149.679564 161.026223 
L 150.984694 166.885903 
L 151.963547 170.411901 
L 152.942389 173.271817 
L 153.921239 175.558016 
L 154.900088 177.365243 
L 155.878937 178.781612 
L 156.857786 179.884357 
L 158.162916 180.977665 
L 159.468046 181.750485 
L 161.099457 182.40264 
L 163.057155 182.884358 
L 165.341135 183.199682 
L 168.603963 183.412802 
L 174.477051 183.529304 
L 191.117468 183.544272 
L 199.927104 183.404353 
L 203.516213 183.143042 
L 205.800186 182.778161 
L 207.43161 182.335904 
L 209.063021 181.646656 
L 210.368145 180.830428 
L 211.346994 180.003195 
L 212.325843 178.934732 
L 213.304692 177.561424 
L 214.283541 175.807526 
L 215.26239 173.586142 
L 216.241239 170.802942 
L 217.220088 167.364581 
L 218.198938 163.193644 
L 219.504061 156.43689 
L 220.809198 148.444974 
L 224.07202 127.580053 
L 225.050869 123.215841 
L 225.703443 121.337356 
L 226.029718 120.75557 
L 226.356005 120.425771 
L 226.68228 120.353306 
L 227.008567 120.539367 
L 227.334854 120.980926 
L 227.987416 122.598068 
L 228.639978 125.103553 
L 229.618827 130.192783 
L 230.923964 138.500051 
L 233.534224 155.385274 
L 234.839348 162.329745 
L 236.144484 167.913034 
L 237.123333 171.249888 
L 238.102182 173.944718 
L 239.081031 176.091775 
L 240.059881 177.784669 
L 241.03873 179.108826 
L 242.017579 180.138224 
L 243.322703 181.157494 
L 244.627839 181.877198 
L 246.25925 182.484032 
L 248.216948 182.931983 
L 250.827208 183.253816 
L 254.416318 183.445401 
L 261.268249 183.540859 
L 280.192657 183.515264 
L 286.06574 183.34105 
L 289.002287 183.069054 
L 291.28626 182.639562 
L 292.917683 182.119594 
L 294.222807 181.501952 
L 295.527944 180.625402 
L 296.506793 179.737957 
L 297.485642 178.593106 
L 298.464479 177.123947 
L 299.443328 175.25148 
L 300.422177 172.886253 
L 301.401026 169.933153 
L 302.379875 166.301381 
L 303.358724 161.921528 
L 304.66386 154.891294 
L 306.295272 144.522883 
L 308.579257 129.703399 
L 309.558106 124.734229 
L 310.210656 122.336144 
L 310.86323 120.842486 
L 311.189505 120.46653 
L 311.515804 120.347244 
L 311.842079 120.486578 
L 312.168354 120.882255 
L 312.820928 122.413105 
L 313.473478 124.84364 
L 314.452327 129.849291 
L 315.757476 138.104484 
L 318.367723 155.039979 
L 319.672872 162.044575 
L 320.977996 167.689131 
L 321.956845 171.067528 
L 322.935694 173.798503 
L 323.914543 175.975928 
L 324.893392 177.693718 
L 325.872242 179.037921 
L 326.851091 180.083243 
L 328.156215 181.118574 
L 329.461338 181.849784 
L 331.092762 182.466432 
L 333.05046 182.921691 
L 335.660708 183.248809 
L 339.24983 183.443552 
L 346.101749 183.540594 
L 365.026157 183.515934 
L 370.899251 183.344421 
L 374.162074 183.031195 
L 376.119772 182.653727 
L 377.751195 182.141684 
L 379.056319 181.533361 
L 380.361443 180.669891 
L 381.340292 179.795484 
L 382.319141 178.667157 
L 383.29799 177.218695 
L 384.27684 175.371794 
L 385.255689 173.037504 
L 386.234538 170.120827 
L 387.213387 166.530304 
L 388.192236 162.194777 
L 389.49736 155.22171 
L 391.128783 144.900161 
L 393.412756 130.029254 
L 394.391606 124.979415 
L 395.04418 122.509367 
L 395.696729 120.933076 
L 396.023004 120.513272 
L 396.349304 120.349376 
L 396.675579 120.444065 
L 397.001853 120.795791 
L 397.328153 121.398873 
L 397.980702 123.316663 
L 398.633277 126.079131 
L 399.612126 131.447892 
L 401.243549 142.118552 
L 403.201248 154.708376 
L 404.506372 161.769956 
L 405.811495 167.473034 
L 406.790345 170.891419 
L 407.769194 173.657188 
L 408.748043 175.863894 
L 409.726892 177.605721 
L 410.705741 178.969294 
L 411.68459 180.030015 
L 412.989714 181.080874 
L 414.294838 181.823228 
L 415.926261 182.449386 
L 417.88396 182.911724 
L 420.167933 183.214283 
L 423.757054 183.430773 
L 425.062178 183.46936 
L 425.062178 183.46936 
" clip-path="url(#p13a85f10a8)" style="fill: none; stroke: #1f77b4; stroke-width: 1.5; stroke-linecap: square"/>
   </g>
   <g id="line2d_22">
    <path d="M 99.105744 183.554016 
L 113.788466 183.444174 
L 117.703858 183.221402 
L 120.31412 182.865484 
L 122.271817 182.37043 
L 123.903231 181.70035 
L 125.208361 180.90658 
L 126.18721 180.101718 
L 127.166056 179.061747 
L 128.144905 177.724242 
L 129.123754 176.01473 
L 130.1026 173.847421 
L 131.08145 171.128375 
L 132.060299 167.763568 
L 133.039145 163.672891 
L 134.344278 157.023223 
L 135.649408 149.115829 
L 138.912236 128.128845 
L 139.891082 123.593079 
L 140.543647 121.571147 
L 141.196215 120.501819 
L 141.522496 120.348169 
L 141.848781 120.453284 
L 142.175061 120.815421 
L 142.501346 121.428693 
L 143.153911 123.365725 
L 143.806476 126.144771 
L 144.785325 131.531903 
L 146.416739 142.214114 
L 148.374434 154.793488 
L 149.679564 161.841161 
L 150.984694 167.529476 
L 151.963547 170.937635 
L 152.942389 173.694352 
L 153.921239 175.893403 
L 154.900088 177.628996 
L 155.878937 178.987441 
L 156.857786 180.044101 
L 158.162916 181.090852 
L 159.468046 181.830241 
L 161.099457 182.45392 
L 163.057155 182.914372 
L 165.341135 183.215659 
L 168.930244 183.431258 
L 175.12962 183.535066 
L 193.401447 183.5315 
L 200.253385 183.382163 
L 203.516213 183.124083 
L 205.800186 182.742685 
L 207.43161 182.280492 
L 208.736733 181.730952 
L 210.04187 180.949932 
L 211.020719 180.157924 
L 211.999568 179.134207 
L 212.978417 177.817186 
L 213.957266 176.133218 
L 214.936103 173.996966 
L 215.914952 171.314948 
L 216.893801 167.992789 
L 217.87265 163.948926 
L 219.177787 157.362534 
L 220.482911 149.50664 
L 224.07202 126.745231 
L 224.724594 123.825679 
L 225.377156 121.720671 
L 226.029718 120.558834 
L 226.356005 120.35723 
L 226.68228 120.414161 
L 227.008567 120.728759 
L 227.334854 121.295921 
L 227.987416 123.147679 
L 228.639978 125.854639 
L 229.618827 131.164749 
L 231.250238 141.804105 
L 233.207937 154.434274 
L 234.513073 161.543046 
L 235.818197 167.294575 
L 236.797046 170.745982 
L 237.775895 173.540516 
L 238.754744 175.771412 
L 239.733593 177.533086 
L 240.712442 178.912679 
L 241.691292 179.986091 
L 242.996428 181.04976 
L 244.301552 181.801277 
L 245.932963 182.435261 
L 247.890661 182.903487 
L 250.174647 183.209895 
L 253.763756 183.429102 
L 259.963125 183.534652 
L 277.908672 183.534154 
L 285.08689 183.385024 
L 288.349725 183.131153 
L 290.633698 182.755871 
L 292.265109 182.301121 
L 293.570245 181.760226 
L 294.875369 180.991522 
L 296.180506 179.903887 
L 297.159355 178.806756 
L 298.138204 177.397391 
L 299.117053 175.598813 
L 300.095902 173.323093 
L 301.074751 170.475462 
L 302.053588 166.963454 
L 303.032437 162.712388 
L 304.337573 155.849195 
L 305.968984 145.620262 
L 308.579257 128.785054 
L 309.558106 124.058838 
L 310.210656 121.874072 
L 310.86323 120.622856 
L 311.189505 120.374562 
L 311.515804 120.384617 
L 311.842079 120.652836 
L 312.168354 121.174801 
L 312.820928 122.942654 
L 313.473478 125.578086 
L 314.452327 130.810925 
L 316.08375 141.405043 
L 318.041449 154.082254 
L 319.346572 161.250031 
L 320.651721 167.063406 
L 321.630545 170.557128 
L 322.609395 173.388711 
L 323.588244 175.650955 
L 324.567093 177.43838 
L 325.545942 178.838746 
L 326.524791 179.928724 
L 327.82994 181.009165 
L 329.135064 181.772666 
L 330.766462 182.416913 
L 332.724161 182.892727 
L 335.008158 183.204132 
L 338.270981 183.414589 
L 344.144075 183.529676 
L 360.784486 183.544106 
L 369.594128 183.402419 
L 373.183224 183.137766 
L 375.467197 182.768248 
L 377.098621 182.320423 
L 378.730044 181.622562 
L 380.035168 180.796282 
L 381.014017 179.958994 
L 381.992867 178.877724 
L 382.971716 177.488304 
L 383.950565 175.714418 
L 384.929414 173.468739 
L 385.908263 170.656645 
L 386.887112 167.185148 
L 387.865936 162.978119 
L 389.171085 156.172894 
L 390.802484 145.995129 
L 393.412756 129.10017 
L 394.391606 124.287395 
L 395.04418 122.027494 
L 395.696729 120.691668 
L 396.023004 120.399068 
L 396.349304 120.364403 
L 396.675579 120.588171 
L 397.001853 121.066763 
L 397.654428 122.753717 
L 398.307002 125.319943 
L 399.285851 130.476943 
L 400.91725 141.02435 
L 402.874948 153.744208 
L 404.180097 160.968067 
L 405.485221 166.84026 
L 406.46407 170.374764 
L 407.442919 173.242069 
L 408.421768 175.534458 
L 409.400617 177.346762 
L 410.379466 178.767239 
L 411.358315 179.873202 
L 412.663439 180.969794 
L 413.968563 181.744926 
L 415.599987 182.399082 
L 417.557685 182.882278 
L 419.841658 183.198596 
L 423.10448 183.41235 
L 425.062178 183.473283 
L 425.062178 183.473283 
" clip-path="url(#p13a85f10a8)" style="fill: none; stroke-dasharray: 5.55,2.4; stroke-dashoffset: 0; stroke: #000000; stroke-width: 1.5"/>
   </g>
   <g id="patch_7">
    <path d="M 82.807922 186.714361 
L 82.807922 117.186905 
" style="fill: none; stroke: #000000; stroke-width: 0.8; stroke-linejoin: miter; stroke-linecap: square"/>
   </g>
   <g id="patch_8">
    <path d="M 82.807922 186.714361 
L 441.36 186.714361 
" style="fill: none; stroke: #000000; stroke-width: 0.8; stroke-linejoin: miter; stroke-linecap: square"/>
   </g>
  </g>
  <g id="axes_3">
   <g id="patch_9">
    <path d="M 82.807922 281.85 
L 441.36 281.85 
L 441.36 212.322544 
L 82.807922 212.322544 
z
" style="fill: #ffffff"/>
   </g>
   <g id="matplotlib.axis_5">
    <g id="xtick_13">
     <g id="line2d_23">
      <g>
       <use xlink:href="#mb0019b724f" x="99.105744" y="281.85" style="stroke: #000000; stroke-width: 0.8"/>
      </g>
     </g>
     <g id="text_9">
      <!-- $\mathdefault{0}$ -->
      <g transform="translate(94.605744 297.840312) scale(0.18 -0.18)">
       <use xlink:href="#Cmr10-30" transform="translate(0 0.390625)"/>
      </g>
     </g>
    </g>
    <g id="xtick_14">
     <g id="line2d_24">
      <g>
       <use xlink:href="#mb0019b724f" x="164.297031" y="281.85" style="stroke: #000000; stroke-width: 0.8"/>
      </g>
     </g>
     <g id="text_10">
      <!-- $\mathdefault{10}$ -->
      <g transform="translate(155.297031 297.840312) scale(0.18 -0.18)">
       <use xlink:href="#Cmr10-31" transform="translate(0 0.390625)"/>
       <use xlink:href="#Cmr10-30" transform="translate(50 0.390625)"/>
      </g>
     </g>
    </g>
    <g id="xtick_15">
     <g id="line2d_25">
      <g>
       <use xlink:href="#mb0019b724f" x="229.488317" y="281.85" style="stroke: #000000; stroke-width: 0.8"/>
      </g>
     </g>
     <g id="text_11">
      <!-- $\mathdefault{20}$ -->
      <g transform="translate(220.488317 297.840312) scale(0.18 -0.18)">
       <use xlink:href="#Cmr10-32" transform="translate(0 0.390625)"/>
       <use xlink:href="#Cmr10-30" transform="translate(50 0.390625)"/>
      </g>
     </g>
    </g>
    <g id="xtick_16">
     <g id="line2d_26">
      <g>
       <use xlink:href="#mb0019b724f" x="294.679604" y="281.85" style="stroke: #000000; stroke-width: 0.8"/>
      </g>
     </g>
     <g id="text_12">
      <!-- $\mathdefault{30}$ -->
      <g transform="translate(285.679604 297.840312) scale(0.18 -0.18)">
       <defs>
        <path id="Cmr10-33" d="M 609 494 
Q 759 275 1012 169 
Q 1266 63 1556 63 
Q 1928 63 2084 380 
Q 2241 697 2241 1100 
Q 2241 1281 2208 1462 
Q 2175 1644 2097 1800 
Q 2019 1956 1883 2050 
Q 1747 2144 1550 2144 
L 1125 2144 
Q 1069 2144 1069 2203 
L 1069 2259 
Q 1069 2309 1125 2309 
L 1478 2338 
Q 1703 2338 1851 2506 
Q 2000 2675 2069 2917 
Q 2138 3159 2138 3378 
Q 2138 3684 1994 3881 
Q 1850 4078 1556 4078 
Q 1313 4078 1091 3986 
Q 869 3894 738 3706 
Q 750 3709 759 3711 
Q 769 3713 781 3713 
Q 925 3713 1022 3613 
Q 1119 3513 1119 3372 
Q 1119 3234 1022 3134 
Q 925 3034 781 3034 
Q 641 3034 541 3134 
Q 441 3234 441 3372 
Q 441 3647 606 3850 
Q 772 4053 1033 4158 
Q 1294 4263 1556 4263 
Q 1750 4263 1965 4205 
Q 2181 4147 2356 4039 
Q 2531 3931 2642 3762 
Q 2753 3594 2753 3378 
Q 2753 3109 2633 2881 
Q 2513 2653 2303 2487 
Q 2094 2322 1844 2241 
Q 2122 2188 2372 2031 
Q 2622 1875 2773 1631 
Q 2925 1388 2925 1106 
Q 2925 753 2731 467 
Q 2538 181 2222 20 
Q 1906 -141 1556 -141 
Q 1256 -141 954 -26 
Q 653 88 461 316 
Q 269 544 269 863 
Q 269 1022 375 1128 
Q 481 1234 641 1234 
Q 744 1234 830 1186 
Q 916 1138 964 1050 
Q 1013 963 1013 863 
Q 1013 706 903 600 
Q 794 494 641 494 
L 609 494 
z
" transform="scale(0.015625)"/>
       </defs>
       <use xlink:href="#Cmr10-33" transform="translate(0 0.390625)"/>
       <use xlink:href="#Cmr10-30" transform="translate(50 0.390625)"/>
      </g>
     </g>
    </g>
    <g id="xtick_17">
     <g id="line2d_27">
      <g>
       <use xlink:href="#mb0019b724f" x="359.870891" y="281.85" style="stroke: #000000; stroke-width: 0.8"/>
      </g>
     </g>
     <g id="text_13">
      <!-- $\mathdefault{40}$ -->
      <g transform="translate(350.870891 297.840312) scale(0.18 -0.18)">
       <defs>
        <path id="Cmr10-34" d="M 178 1056 
L 178 1281 
L 2156 4231 
Q 2178 4263 2222 4263 
L 2316 4263 
Q 2388 4263 2388 4191 
L 2388 1281 
L 3016 1281 
L 3016 1056 
L 2388 1056 
L 2388 428 
Q 2388 297 2575 261 
Q 2763 225 3009 225 
L 3009 0 
L 1247 0 
L 1247 225 
Q 1494 225 1681 261 
Q 1869 297 1869 428 
L 1869 1056 
L 178 1056 
z
M 391 1281 
L 1906 1281 
L 1906 3547 
L 391 1281 
z
" transform="scale(0.015625)"/>
       </defs>
       <use xlink:href="#Cmr10-34" transform="translate(0 0.390625)"/>
       <use xlink:href="#Cmr10-30" transform="translate(50 0.390625)"/>
      </g>
     </g>
    </g>
    <g id="xtick_18">
     <g id="line2d_28">
      <g>
       <use xlink:href="#mb0019b724f" x="425.062178" y="281.85" style="stroke: #000000; stroke-width: 0.8"/>
      </g>
     </g>
     <g id="text_14">
      <!-- $\mathdefault{50}$ -->
      <g transform="translate(416.062178 297.840312) scale(0.18 -0.18)">
       <defs>
        <path id="Cmr10-35" d="M 556 728 
Q 622 541 758 387 
Q 894 234 1080 148 
Q 1266 63 1466 63 
Q 1928 63 2103 422 
Q 2278 781 2278 1294 
Q 2278 1516 2270 1667 
Q 2263 1819 2228 1959 
Q 2169 2184 2020 2353 
Q 1872 2522 1656 2522 
Q 1441 2522 1286 2456 
Q 1131 2391 1034 2303 
Q 938 2216 863 2119 
Q 788 2022 769 2016 
L 697 2016 
Q 681 2016 657 2036 
Q 634 2056 634 2075 
L 634 4213 
Q 634 4228 654 4245 
Q 675 4263 697 4263 
L 716 4263 
Q 1147 4056 1631 4056 
Q 2106 4056 2547 4263 
L 2566 4263 
Q 2588 4263 2606 4247 
Q 2625 4231 2625 4213 
L 2625 4153 
Q 2625 4122 2613 4122 
Q 2394 3831 2064 3668 
Q 1734 3506 1381 3506 
Q 1125 3506 856 3578 
L 856 2369 
Q 1069 2541 1236 2614 
Q 1403 2688 1663 2688 
Q 2016 2688 2295 2484 
Q 2575 2281 2725 1954 
Q 2875 1628 2875 1288 
Q 2875 903 2686 575 
Q 2497 247 2172 53 
Q 1847 -141 1466 -141 
Q 1150 -141 886 21 
Q 622 184 470 459 
Q 319 734 319 1044 
Q 319 1188 412 1278 
Q 506 1369 647 1369 
Q 788 1369 883 1276 
Q 978 1184 978 1044 
Q 978 906 883 811 
Q 788 716 647 716 
Q 625 716 597 720 
Q 569 725 556 728 
z
" transform="scale(0.015625)"/>
       </defs>
       <use xlink:href="#Cmr10-35" transform="translate(0 0.390625)"/>
       <use xlink:href="#Cmr10-30" transform="translate(50 0.390625)"/>
      </g>
     </g>
    </g>
    <g id="text_15">
     <!-- $t$ / s -->
     <g transform="translate(244.713961 318.830625) scale(0.18 -0.18)">
      <defs>
       <path id="Cmmi10-74" d="M 397 519 
Q 397 613 416 697 
L 878 2534 
L 206 2534 
Q 141 2534 141 2619 
Q 166 2759 225 2759 
L 934 2759 
L 1191 3803 
Q 1216 3888 1291 3947 
Q 1366 4006 1459 4006 
Q 1541 4006 1595 3957 
Q 1650 3909 1650 3828 
Q 1650 3809 1648 3798 
Q 1647 3788 1644 3775 
L 1388 2759 
L 2047 2759 
Q 2113 2759 2113 2675 
Q 2109 2659 2100 2621 
Q 2091 2584 2075 2559 
Q 2059 2534 2028 2534 
L 1331 2534 
L 872 684 
Q 825 503 825 372 
Q 825 97 1013 97 
Q 1294 97 1511 361 
Q 1728 625 1844 941 
Q 1869 978 1894 978 
L 1972 978 
Q 1997 978 2012 961 
Q 2028 944 2028 922 
Q 2028 909 2022 903 
Q 1881 516 1612 222 
Q 1344 -72 997 -72 
Q 744 -72 570 93 
Q 397 259 397 519 
z
" transform="scale(0.015625)"/>
       <path id="Cmr10-2f" d="M 359 -1472 
Q 359 -1453 366 -1447 
L 2591 4722 
Q 2603 4759 2634 4779 
Q 2666 4800 2706 4800 
Q 2763 4800 2798 4765 
Q 2834 4731 2834 4672 
L 2834 4647 
L 609 -1522 
Q 572 -1600 488 -1600 
Q 434 -1600 396 -1562 
Q 359 -1525 359 -1472 
z
" transform="scale(0.015625)"/>
       <path id="Cmr10-73" d="M 213 -19 
L 213 1025 
Q 213 1075 269 1075 
L 347 1075 
Q 384 1075 397 1025 
Q 575 97 1259 97 
Q 1563 97 1767 234 
Q 1972 372 1972 659 
Q 1972 866 1812 1011 
Q 1653 1156 1434 1209 
L 1006 1294 
Q 791 1341 614 1437 
Q 438 1534 325 1695 
Q 213 1856 213 2069 
Q 213 2350 361 2529 
Q 509 2709 746 2789 
Q 984 2869 1259 2869 
Q 1588 2869 1831 2694 
L 2016 2853 
Q 2016 2869 2047 2869 
L 2094 2869 
Q 2113 2869 2128 2851 
Q 2144 2834 2144 2816 
L 2144 1978 
Q 2144 1919 2094 1919 
L 2016 1919 
Q 1959 1919 1959 1978 
Q 1959 2313 1773 2516 
Q 1588 2719 1253 2719 
Q 966 2719 755 2612 
Q 544 2506 544 2247 
Q 544 2069 695 1955 
Q 847 1841 1050 1791 
L 1484 1709 
Q 1703 1659 1892 1540 
Q 2081 1422 2192 1240 
Q 2303 1059 2303 831 
Q 2303 600 2223 429 
Q 2144 259 2001 146 
Q 1859 34 1665 -19 
Q 1472 -72 1259 -72 
Q 859 -72 575 197 
L 341 -56 
Q 341 -72 306 -72 
L 269 -72 
Q 213 -72 213 -19 
z
" transform="scale(0.015625)"/>
      </defs>
      <use xlink:href="#Cmmi10-74"/>
      <use xlink:href="#Cmr10-20" transform="translate(36.083984 0)"/>
      <use xlink:href="#Cmr10-2f" transform="translate(69.384766 0)"/>
      <use xlink:href="#Cmr10-20" transform="translate(119.384766 0)"/>
      <use xlink:href="#Cmr10-73" transform="translate(152.685547 0)"/>
     </g>
    </g>
   </g>
   <g id="matplotlib.axis_6">
    <g id="ytick_5">
     <g id="line2d_29">
      <g>
       <use xlink:href="#m9a623cfa7c" x="82.807922" y="264.472579" style="stroke: #000000; stroke-width: 0.8"/>
      </g>
     </g>
     <g id="text_16">
      <!-- $\mathdefault{-0.1}$ -->
      <g transform="translate(42.227922 270.717736) scale(0.18 -0.18)">
       <use xlink:href="#Cmsy10-a1" transform="translate(0 0.390625)"/>
       <use xlink:href="#Cmr10-30" transform="translate(77.685547 0.390625)"/>
       <use xlink:href="#Cmr10-2e" transform="translate(127.685547 0.390625)"/>
       <use xlink:href="#Cmr10-31" transform="translate(155.371094 0.390625)"/>
      </g>
     </g>
    </g>
    <g id="ytick_6">
     <g id="line2d_30">
      <g>
       <use xlink:href="#m9a623cfa7c" x="82.807922" y="247.085913" style="stroke: #000000; stroke-width: 0.8"/>
      </g>
     </g>
     <g id="text_17">
      <!-- $\mathdefault{0.0}$ -->
      <g transform="translate(56.267922 253.331069) scale(0.18 -0.18)">
       <use xlink:href="#Cmr10-30" transform="translate(0 0.390625)"/>
       <use xlink:href="#Cmr10-2e" transform="translate(50 0.390625)"/>
       <use xlink:href="#Cmr10-30" transform="translate(77.685547 0.390625)"/>
      </g>
     </g>
    </g>
    <g id="ytick_7">
     <g id="line2d_31">
      <g>
       <use xlink:href="#m9a623cfa7c" x="82.807922" y="229.699247" style="stroke: #000000; stroke-width: 0.8"/>
      </g>
     </g>
     <g id="text_18">
      <!-- $\mathdefault{0.1}$ -->
      <g transform="translate(56.267922 235.944403) scale(0.18 -0.18)">
       <use xlink:href="#Cmr10-30" transform="translate(0 0.390625)"/>
       <use xlink:href="#Cmr10-2e" transform="translate(50 0.390625)"/>
       <use xlink:href="#Cmr10-31" transform="translate(77.685547 0.390625)"/>
      </g>
     </g>
    </g>
    <g id="text_19">
     <!-- $\lambda_3$ -->
     <g transform="translate(34.737609 256.086272) rotate(-90) scale(0.18 -0.18)">
      <use xlink:href="#Cmmi10-b8" transform="translate(0 0.609375)"/>
      <use xlink:href="#Cmr10-33" transform="translate(58.300781 -16.396875) scale(0.7)"/>
     </g>
    </g>
   </g>
   <g id="line2d_32">
    <path d="M 99.432026 247.070082 
L 105.95768 246.339663 
L 109.546791 245.714819 
L 112.157052 245.05493 
L 114.441032 244.261811 
L 116.398728 243.360915 
L 118.356423 242.189605 
L 119.987838 240.950342 
L 121.619252 239.414089 
L 123.250664 237.519861 
L 124.882078 235.205282 
L 126.513491 232.418801 
L 128.144905 229.145144 
L 130.1026 224.681354 
L 132.712864 218.681262 
L 133.691713 216.906496 
L 134.344278 216.050891 
L 134.996843 215.560742 
L 135.323124 215.482883 
L 135.649408 215.533051 
L 135.975692 215.723581 
L 136.301973 216.066423 
L 136.954538 217.253085 
L 137.607103 219.168617 
L 138.259671 221.860161 
L 138.912236 225.334563 
L 139.891082 231.904631 
L 141.196215 242.545593 
L 143.480192 261.808129 
L 144.459041 268.471918 
L 145.43789 273.499756 
L 146.090455 275.872801 
L 146.74302 277.484777 
L 147.395585 278.395828 
L 147.721869 278.614065 
L 148.04815 278.689661 
L 148.374434 278.634897 
L 149.026999 278.183972 
L 149.679564 277.358718 
L 150.658413 275.61474 
L 151.963547 272.737031 
L 155.878937 263.78568 
L 157.510348 260.686411 
L 159.141765 258.075387 
L 160.773176 255.920061 
L 162.404593 254.16288 
L 164.036005 252.741036 
L 165.667416 251.595543 
L 167.625114 250.513495 
L 169.582812 249.681135 
L 171.866791 248.947514 
L 174.477051 248.335262 
L 177.73988 247.795048 
L 182.634119 247.23542 
L 191.117468 246.301481 
L 194.706577 245.657209 
L 197.316844 244.974514 
L 199.600823 244.153006 
L 201.558515 243.219477 
L 203.189932 242.23075 
L 204.821349 241.001439 
L 206.45276 239.477308 
L 208.084172 237.597544 
L 209.715583 235.299657 
L 211.346994 232.531358 
L 212.978417 229.275317 
L 214.936103 224.825558 
L 217.546376 218.805724 
L 218.525212 217.001456 
L 219.177787 216.116548 
L 219.830349 215.588369 
L 220.156636 215.48805 
L 220.482911 215.513445 
L 220.809198 215.676925 
L 221.135485 215.990541 
L 221.788047 217.112865 
L 222.440609 218.958049 
L 223.093171 221.576357 
L 223.745745 224.978908 
L 224.724594 231.454639 
L 226.029718 242.020763 
L 228.639978 263.760133 
L 229.618827 270.007486 
L 230.597676 274.559771 
L 231.250238 276.617859 
L 231.902813 277.935751 
L 232.555375 278.584607 
L 232.881662 278.685835 
L 233.207937 278.654397 
L 233.860511 278.243201 
L 234.513073 277.448827 
L 235.491922 275.736375 
L 236.797046 272.878747 
L 240.712442 263.910401 
L 242.343854 260.792976 
L 243.975265 258.164115 
L 245.606688 255.992774 
L 247.238099 254.221902 
L 248.86951 252.788671 
L 250.500921 251.633861 
L 252.45862 250.542963 
L 254.416318 249.703814 
L 256.700291 248.964306 
L 259.310563 248.347346 
L 262.573385 247.803434 
L 267.467631 247.241388 
L 276.277261 246.26201 
L 279.540083 245.670216 
L 282.150343 244.99267 
L 284.434329 244.177569 
L 286.392027 243.251403 
L 288.023438 242.270474 
L 289.654849 241.05078 
L 291.28626 239.538359 
L 292.917683 237.672576 
L 294.549095 235.390873 
L 296.180506 232.640235 
L 297.811917 229.40142 
L 299.769615 224.965695 
L 302.706162 218.268862 
L 303.685011 216.601943 
L 304.337573 215.851811 
L 304.990135 215.49726 
L 305.316422 215.498962 
L 305.64271 215.636524 
L 305.968984 215.922068 
L 306.621546 216.982438 
L 307.274121 218.759585 
L 307.926683 221.306741 
L 308.579257 224.639038 
L 309.558106 231.021614 
L 310.86323 241.511779 
L 313.473478 263.334165 
L 314.452327 269.676458 
L 315.431176 274.335082 
L 316.08375 276.46281 
L 316.736325 277.845171 
L 317.388874 278.551122 
L 317.715174 278.677698 
L 318.041449 278.669373 
L 318.694023 278.297661 
L 319.346572 277.534099 
L 320.325422 275.853314 
L 321.630545 273.016203 
L 325.872242 263.366655 
L 327.50364 260.329291 
L 329.135064 257.778511 
L 330.766462 255.677009 
L 332.397886 253.965698 
L 334.029309 252.58195 
L 335.660708 251.467572 
L 337.618406 250.415068 
L 339.576104 249.605344 
L 341.860077 248.891332 
L 344.796625 248.232732 
L 348.385747 247.681015 
L 353.932542 247.08742 
L 360.784486 246.318298 
L 364.373582 245.682549 
L 366.983855 245.009863 
L 369.267828 244.200824 
L 371.225526 243.281624 
L 372.85695 242.308075 
L 374.488348 241.09749 
L 376.119772 239.596153 
L 377.751195 237.74364 
L 379.382594 235.477296 
L 381.014017 232.743476 
L 382.645416 229.52117 
L 384.603114 225.099156 
L 387.539662 218.379766 
L 388.518511 216.682222 
L 389.171085 215.902379 
L 389.823635 215.509822 
L 390.149934 215.489303 
L 390.476209 215.602511 
L 390.802484 215.861635 
L 391.455058 216.86355 
L 392.107633 218.576205 
L 392.760182 221.055618 
L 393.412756 224.320691 
L 394.391606 230.613259 
L 395.696729 241.027946 
L 398.307002 262.923321 
L 399.285851 269.354999 
L 400.2647 274.114817 
L 400.91725 276.309181 
L 401.569824 277.753611 
L 402.222399 278.514688 
L 402.548673 278.665819 
L 402.874948 278.679916 
L 403.527522 278.346611 
L 404.180097 277.613137 
L 405.158921 275.963492 
L 406.46407 273.146811 
L 410.705741 263.480316 
L 412.337165 260.426016 
L 413.968563 257.858859 
L 415.599987 255.742742 
L 417.231385 254.019013 
L 418.862809 252.624942 
L 420.494232 251.502146 
L 422.451906 250.441655 
L 424.409604 249.625805 
L 425.062178 249.397804 
L 425.062178 249.397804 
" clip-path="url(#pdcb34c5b02)" style="fill: none; stroke: #1f77b4; stroke-width: 1.5; stroke-linecap: square"/>
   </g>
   <g id="line2d_33">
    <path d="M 99.105744 247.085913 
L 105.95768 246.316563 
L 109.546791 245.680086 
L 112.157052 245.006504 
L 114.441032 244.196323 
L 116.398728 243.275803 
L 118.030141 242.300849 
L 119.661555 241.088523 
L 121.292968 239.585076 
L 122.924382 237.730022 
L 124.555796 235.460729 
L 126.18721 232.72367 
L 127.818624 229.498175 
L 129.776319 225.073511 
L 132.712864 218.358625 
L 133.691713 216.667245 
L 134.344278 215.893444 
L 134.996843 215.508695 
L 135.323124 215.492782 
L 135.649408 215.611071 
L 135.975692 215.875751 
L 136.628257 216.890076 
L 137.280822 218.616671 
L 137.933387 221.11103 
L 138.585952 224.391235 
L 139.564801 230.704869 
L 140.869931 241.138835 
L 143.480192 263.021649 
L 144.459041 269.432849 
L 145.43789 274.168484 
L 146.090455 276.346489 
L 146.74302 277.775427 
L 147.395585 278.522572 
L 147.721869 278.667437 
L 148.04815 278.67578 
L 148.700718 278.332553 
L 149.353283 277.591238 
L 150.332129 275.933394 
L 151.637259 273.111297 
L 155.878937 263.449398 
L 157.510348 260.399691 
L 159.141765 257.836984 
L 160.773176 255.724844 
L 162.404593 254.0045 
L 164.036005 252.613258 
L 165.667416 251.492764 
L 167.625114 250.43446 
L 169.582812 249.620299 
L 171.866791 248.902454 
L 174.803332 248.240518 
L 178.392442 247.686452 
L 183.939249 247.091831 
L 190.791187 246.325306 
L 194.380296 245.693266 
L 196.990556 245.024897 
L 199.274536 244.221205 
L 201.232234 243.308145 
L 203.189932 242.121017 
L 204.821349 240.865169 
L 206.45276 239.30875 
L 208.084172 237.390484 
L 209.715583 235.048212 
L 211.346994 232.231696 
L 212.978417 228.92914 
L 215.26239 223.664957 
L 217.546376 218.479285 
L 218.525212 216.755732 
L 219.177787 215.950512 
L 219.830349 215.525473 
L 220.156636 215.48595 
L 220.482911 215.578323 
L 220.809198 215.814847 
L 221.46176 216.766689 
L 222.114334 218.424199 
L 222.766896 220.845668 
L 223.419458 224.053172 
L 224.398307 230.268813 
L 225.703443 240.619149 
L 228.313703 262.575086 
L 229.292553 269.081644 
L 230.271402 273.926124 
L 230.923964 276.176205 
L 231.576526 277.672427 
L 232.229088 278.479551 
L 232.555375 278.65118 
L 232.881662 278.684 
L 233.534224 278.382787 
L 234.186786 277.674489 
L 235.165635 276.050931 
L 236.470771 273.251613 
L 240.712442 263.57234 
L 242.343854 260.504403 
L 243.975265 257.924 
L 245.606688 255.796056 
L 247.238099 254.062267 
L 248.86951 252.659856 
L 250.500921 251.530243 
L 252.45862 250.46328 
L 254.416318 249.642484 
L 256.700291 248.918891 
L 259.636838 248.251908 
L 263.225947 247.694204 
L 268.772755 247.097646 
L 275.624699 246.333782 
L 279.213808 245.706009 
L 281.824068 245.042662 
L 284.108041 244.245232 
L 286.06574 243.339372 
L 288.023438 242.161603 
L 289.654849 240.915572 
L 291.28626 239.371085 
L 292.917683 237.467019 
L 294.549095 235.141113 
L 296.180506 232.342324 
L 297.811917 229.056802 
L 299.769615 224.583769 
L 302.379875 218.598149 
L 303.358724 216.844214 
L 304.011286 216.00922 
L 304.66386 215.545777 
L 304.990135 215.483689 
L 305.316422 215.551249 
L 305.64271 215.760774 
L 306.295272 216.65253 
L 306.947833 218.243233 
L 307.600395 220.593963 
L 308.252957 223.730525 
L 309.231806 229.849629 
L 310.536955 240.115596 
L 313.473478 264.500028 
L 314.452327 270.577477 
L 315.104901 273.683672 
L 315.757476 276.004209 
L 316.410025 277.566436 
L 317.062599 278.432673 
L 317.388874 278.630741 
L 317.715174 278.687798 
L 318.041449 278.616165 
L 318.694023 278.136514 
L 319.346572 277.289002 
L 320.325422 275.522364 
L 321.956845 271.860894 
L 325.219667 264.36751 
L 326.851091 261.184717 
L 328.482489 258.490867 
L 330.113913 256.260841 
L 331.745311 254.439648 
L 333.376735 252.964462 
L 335.008158 251.775312 
L 336.965857 250.651755 
L 338.92353 249.787559 
L 341.207528 249.026308 
L 343.817776 248.391968 
L 347.080598 247.83439 
L 351.648569 247.296258 
L 361.11076 246.246223 
L 364.373582 245.647165 
L 366.983855 244.960479 
L 369.267828 244.134012 
L 371.225526 243.194783 
L 372.85695 242.200017 
L 374.488348 240.963284 
L 376.119772 239.430087 
L 377.751195 237.539501 
L 379.382594 235.229158 
L 381.014017 232.447239 
L 382.645416 229.178039 
L 384.603114 224.717748 
L 387.213387 218.712746 
L 388.192236 216.930752 
L 388.844786 216.068047 
L 389.49736 215.568729 
L 389.823635 215.485499 
L 390.149934 215.529774 
L 390.476209 215.713895 
L 390.802484 216.049854 
L 391.455058 217.221553 
L 392.107633 219.120988 
L 392.760182 221.795992 
L 393.412756 225.254645 
L 394.391606 231.804788 
L 395.696729 242.431505 
L 397.980702 261.711953 
L 398.959552 268.395886 
L 399.938401 273.446393 
L 400.590975 275.834313 
L 401.243549 277.460055 
L 401.896099 278.383276 
L 402.222399 278.606944 
L 402.548673 278.687487 
L 402.874948 278.6372 
L 403.527522 278.193833 
L 404.180097 277.374374 
L 405.158921 275.636315 
L 406.46407 272.762272 
L 410.379466 263.807863 
L 412.010865 260.70537 
L 413.642288 258.091145 
L 415.273687 255.932987 
L 416.905111 254.173356 
L 418.536534 252.749478 
L 420.167933 251.602337 
L 422.125631 250.518712 
L 424.083329 249.68514 
L 425.062178 249.343108 
L 425.062178 249.343108 
" clip-path="url(#pdcb34c5b02)" style="fill: none; stroke-dasharray: 5.55,2.4; stroke-dashoffset: 0; stroke: #000000; stroke-width: 1.5"/>
   </g>
   <g id="patch_10">
    <path d="M 82.807922 281.85 
L 82.807922 212.322544 
" style="fill: none; stroke: #000000; stroke-width: 0.8; stroke-linejoin: miter; stroke-linecap: square"/>
   </g>
   <g id="patch_11">
    <path d="M 82.807922 281.85 
L 441.36 281.85 
" style="fill: none; stroke: #000000; stroke-width: 0.8; stroke-linejoin: miter; stroke-linecap: square"/>
   </g>
  </g>
 </g>
 <defs>
  <clipPath id="p0a0642fc01">
   <rect x="82.807922" y="22.051266" width="358.552078" height="69.527456"/>
  </clipPath>
  <clipPath id="p13a85f10a8">
   <rect x="82.807922" y="117.186905" width="358.552078" height="69.527456"/>
  </clipPath>
  <clipPath id="pdcb34c5b02">
   <rect x="82.807922" y="212.322544" width="358.552078" height="69.527456"/>
  </clipPath>
 </defs>
</svg>
