<svg id="logo" xmlns="http://www.w3.org/2000/svg" viewBox="0 0 228.47 59.07"><defs><style>.cls-1{fill:#1d1d1b;}.cls-2{fill:#75c7f1;}.cls-3{fill:#0a5da7;}</style></defs><title>logo</title><path class="cls-1" d="M1233.6,696.53h-21.48v22.61h-6.75V668h31.71v5.52h-25V691h21.48Z" transform="translate(-1205.37 -660.93)"/><path class="cls-1" d="M1259.2,719.84a16.62,16.62,0,0,1-12.59-5.08q-4.84-5.09-4.85-13.59V700a22.82,22.82,0,0,1,2.16-10.11,16.79,16.79,0,0,1,6-7,15.15,15.15,0,0,1,8.42-2.51q7.41,0,11.53,4.88t4.11,14V702h-25.77a13.55,13.55,0,0,0,3.29,9.09,10.32,10.32,0,0,0,8,3.46,11.36,11.36,0,0,0,5.83-1.4,14.67,14.67,0,0,0,4.19-3.73l4,3.09Q1268.75,719.84,1259.2,719.84Zm-.81-34.1a8.66,8.66,0,0,0-6.61,2.86,14,14,0,0,0-3.31,8h19.06v-.49q-.29-5-2.67-7.69A8.19,8.19,0,0,0,1258.39,685.74Z" transform="translate(-1205.37 -660.93)"/><path class="cls-1" d="M1287.67,681.1l.18,4.22a14,14,0,0,1,11.28-4.92q8,0,10.87,6.11a14.37,14.37,0,0,1,4.94-4.43,14.61,14.61,0,0,1,7.19-1.68q12.51,0,12.72,13.25v25.49h-6.5V694c0-2.72-.62-4.76-1.86-6.1s-3.33-2-6.26-2a8.62,8.62,0,0,0-6,2.17,8.75,8.75,0,0,0-2.78,5.82v25.24h-6.54V694.21q0-8.3-8.12-8.3-6.4,0-8.75,5.45v27.78h-6.51v-38Z" transform="translate(-1205.37 -660.93)"/><path class="cls-1" d="M1353.49,671.89v9.21h7.1v5h-7.1v23.62a5.26,5.26,0,0,0,1,3.43,4,4,0,0,0,3.23,1.14,15.76,15.76,0,0,0,3.09-.42v5.24a18.76,18.76,0,0,1-5,.7c-2.9,0-5.1-.88-6.57-2.64S1347,713,1347,709.72V686.13h-6.92v-5H1347v-9.21Z" transform="translate(-1205.37 -660.93)"/><path class="cls-1" d="M1365.76,699.77a22.55,22.55,0,0,1,2.19-10.06A16.15,16.15,0,0,1,1383,680.4a16.06,16.06,0,0,1,12.57,5.37q4.8,5.38,4.79,14.31v.46a22.65,22.65,0,0,1-2.12,10,16.2,16.2,0,0,1-6.08,6.87,16.87,16.87,0,0,1-9.09,2.46,16,16,0,0,1-12.54-5.38q-4.79-5.37-4.79-14.24Zm6.53.77q0,6.33,2.94,10.16a10,10,0,0,0,15.73-.05q2.93-3.89,2.92-10.88,0-6.27-3-10.15a9.88,9.88,0,0,0-15.66,0Q1372.3,693.41,1372.29,700.54Z" transform="translate(-1205.37 -660.93)"/><path class="cls-2" d="M1420.55,702.86v14.25a2.9,2.9,0,0,1-5.79,0v-20Z" transform="translate(-1205.37 -660.93)"/><path class="cls-3" d="M1433,698.23a2.91,2.91,0,0,1-4.09,0l-8.36-8.36v13l-5.79-5.79v-13l-18.23-18.22a2.89,2.89,0,1,1,4.09-4.09l9,9v-2.3a2.89,2.89,0,0,1,5.78,0v8.08l4.29,4.29,13.3,13.29A2.91,2.91,0,0,1,1433,698.23Z" transform="translate(-1205.37 -660.93)"/></svg>