<?xml version="1.0" encoding="utf-8"?>
<!-- Generator: Adobe Illustrator 24.0.1, SVG Export Plug-In . SVG Version: 6.00 Build 0)  -->
<svg version="1.1" id="Layer_1" xmlns="http://www.w3.org/2000/svg" xmlns:xlink="http://www.w3.org/1999/xlink" x="0px" y="0px"
	 viewBox="0 0 24 24" style="enable-background:new 0 0 24 24;" xml:space="preserve">
<style type="text/css">
	.st0{fill:#FFFFFF;}
	.st1{fill:#FF4500;}
</style>
<circle class="st0" cx="12" cy="11.9" r="8.9"/>
<path class="st1" d="M14.2,15.3c0,0-0.2,0-0.3,0c-0.4,0.4-1,0.6-1.9,0.6s-1.5-0.2-1.9-0.6c-0.1-0.1-0.2-0.1-0.3,0
	c-0.1,0.1-0.1,0.2,0,0.3c0.4,0.5,1.2,0.7,2.2,0.7s1.7-0.2,2.2-0.7C14.3,15.5,14.3,15.4,14.2,15.3z M9.9,12C9.4,12,9,12.4,9,12.9
	s0.4,0.9,0.9,0.9s0.9-0.4,0.9-0.9S10.4,12,9.9,12z M9.9,12C9.4,12,9,12.4,9,12.9s0.4,0.9,0.9,0.9s0.9-0.4,0.9-0.9S10.4,12,9.9,12z
	 M14.2,15.3c0,0-0.2,0-0.3,0c-0.4,0.4-1,0.6-1.9,0.6s-1.5-0.2-1.9-0.6c-0.1-0.1-0.2-0.1-0.3,0c-0.1,0.1-0.1,0.2,0,0.3
	c0.4,0.5,1.2,0.7,2.2,0.7s1.7-0.2,2.2-0.7C14.3,15.5,14.3,15.4,14.2,15.3z M14.1,12c-0.5,0-0.9,0.4-0.9,0.9s0.4,0.9,0.9,0.9
	s0.9-0.4,0.9-0.9C15.1,12.4,14.6,12,14.1,12z M14.1,12c-0.5,0-0.9,0.4-0.9,0.9s0.4,0.9,0.9,0.9s0.9-0.4,0.9-0.9
	C15.1,12.4,14.6,12,14.1,12z M13.9,15.3c-0.4,0.4-1,0.6-1.9,0.6s-1.5-0.2-1.9-0.6c-0.1-0.1-0.2-0.1-0.3,0c-0.1,0.1-0.1,0.2,0,0.3
	c0.4,0.5,1.2,0.7,2.2,0.7s1.7-0.2,2.2-0.7c0.1-0.1,0.1-0.2,0-0.3C14.2,15.3,14,15.3,13.9,15.3z M10.8,12.9c0-0.5-0.4-0.9-0.9-0.9
	S9,12.4,9,12.9s0.4,0.9,0.9,0.9S10.8,13.4,10.8,12.9z M12,0C5.4,0,0,5.4,0,12s5.4,12,12,12s12-5.4,12-12S18.6,0,12,0z M18.3,13.2
	v0.5c0,2.2-2.8,4.1-6.3,4.1S5.7,16,5.7,13.7c0-0.2,0.1-0.3,0.1-0.5C5.3,13,5,12.5,5,11.9c0-0.9,0.7-1.6,1.5-1.7c0.4,0,0.7,0.1,1,0.4
	c1.1-0.7,2.6-1.2,4.3-1.2l1-3c0.1-0.1,0.2-0.1,0.3-0.1l2.5,0.6c0.2-0.5,0.7-0.8,1.2-0.8c0.7,0,1.3,0.6,1.3,1.3
	c0,0.7-0.6,1.3-1.3,1.3s-1.3-0.6-1.3-1.3l-2.3-0.5l-0.9,2.7c1.6,0.1,3,0.5,4.1,1.2c0.3-0.2,0.7-0.4,1.1-0.4c0.8,0,1.5,0.6,1.5,1.5
	C19,12.5,18.7,13,18.3,13.2z M14.1,12c-0.5,0-0.9,0.4-0.9,0.9s0.4,0.9,0.9,0.9s0.9-0.4,0.9-0.9C15.1,12.4,14.6,12,14.1,12z
	 M13.9,15.3c-0.4,0.4-1,0.6-1.9,0.6s-1.5-0.2-1.9-0.6c-0.1-0.1-0.2-0.1-0.3,0c-0.1,0.1-0.1,0.2,0,0.3c0.4,0.5,1.2,0.7,2.2,0.7
	s1.7-0.2,2.2-0.7c0.1-0.1,0.1-0.2,0-0.3C14.2,15.3,14,15.3,13.9,15.3z M10.8,12.9c0-0.5-0.4-0.9-0.9-0.9S9,12.4,9,12.9
	s0.4,0.9,0.9,0.9S10.8,13.4,10.8,12.9z M9.9,12C9.4,12,9,12.4,9,12.9s0.4,0.9,0.9,0.9s0.9-0.4,0.9-0.9S10.4,12,9.9,12z M14.2,15.3
	c0,0-0.2,0-0.3,0c-0.4,0.4-1,0.6-1.9,0.6s-1.5-0.2-1.9-0.6c-0.1-0.1-0.2-0.1-0.3,0c-0.1,0.1-0.1,0.2,0,0.3c0.4,0.5,1.2,0.7,2.2,0.7
	s1.7-0.2,2.2-0.7C14.3,15.5,14.3,15.4,14.2,15.3z M14.1,12c-0.5,0-0.9,0.4-0.9,0.9s0.4,0.9,0.9,0.9s0.9-0.4,0.9-0.9
	C15.1,12.4,14.6,12,14.1,12z M14.1,12c-0.5,0-0.9,0.4-0.9,0.9s0.4,0.9,0.9,0.9s0.9-0.4,0.9-0.9C15.1,12.4,14.6,12,14.1,12z"/>
</svg>
